<svg width="47" height="47" viewBox="0 0 47 47" fill="none" xmlns="http://www.w3.org/2000/svg">
<g clip-path="url(#clip0_1_1250)">
<path d="M21.3088 1.46055L1.13766 21.5479C0.0532252 22.6278 0.0532252 24.3721 1.13766 25.452L21.3088 45.5393C22.3932 46.6193 24.1447 46.6193 25.2292 45.5393L33.6866 37.117C34.6578 36.1499 34.6578 34.5818 33.6866 33.6146C32.7154 32.6475 31.1408 32.6475 30.1696 33.6146L23.7581 39.9995C23.4882 40.2683 23.0785 40.2683 22.8086 39.9995L6.70057 23.9584C6.43065 23.6896 6.43065 23.2816 6.70057 23.0128L22.8086 6.97166C23.0785 6.70287 23.4882 6.70287 23.7581 6.97166L30.1696 13.3566C31.1408 14.3237 32.7154 14.3237 33.6866 13.3566C34.6578 12.3894 34.6578 10.8213 33.6866 9.85419L25.2301 1.43277C24.1412 0.376211 22.389 0.384764 21.3088 1.46055Z" fill="url(#paint0_linear_1_1250)"/>
<path d="M21.3088 1.46055L1.13766 21.5479C0.0532252 22.6278 0.0532252 24.3721 1.13766 25.452L21.3088 45.5393C22.3932 46.6193 24.1447 46.6193 25.2292 45.5393L33.6866 37.117C34.6578 36.1499 34.6578 34.5818 33.6866 33.6146C32.7154 32.6475 31.1408 32.6475 30.1696 33.6146L23.7581 39.9995C23.4882 40.2683 23.0785 40.2683 22.8086 39.9995L6.70057 23.9584C6.43065 23.6896 6.43065 23.2816 6.70057 23.0128L22.8086 6.97166C23.4807 6.3942 24.5773 5.22457 26.1876 4.95101C27.3843 4.74771 28.6927 5.19517 30.1127 6.2934C29.1634 5.34799 27.5358 3.72777 25.2301 1.43277C24.1412 0.376211 22.389 0.384764 21.3088 1.46055Z" fill="url(#paint1_linear_1_1250)"/>
<path d="M35.6389 31.7465C36.6101 32.7136 38.1847 32.7136 39.1558 31.7465L45.3945 25.5337C46.4789 24.4538 46.4789 22.7095 45.3946 21.6297L39.1016 15.3851C38.1281 14.4191 36.553 14.4204 35.5812 15.3882C34.61 16.3553 34.61 17.9234 35.5812 18.8906L39.8316 23.1232C40.1015 23.392 40.1015 23.8 39.8316 24.0688L35.6389 28.2441C34.6677 29.2112 34.6677 30.7793 35.6389 31.7465Z" fill="url(#paint2_linear_1_1250)"/>
<path d="M23.3697 29.0239C26.3776 29.0239 28.8159 26.5957 28.8159 23.6004C28.8159 20.605 26.3776 18.1768 23.3697 18.1768C20.3619 18.1768 17.9235 20.605 17.9235 23.6004C17.9235 26.5957 20.3619 29.0239 23.3697 29.0239Z" fill="url(#paint3_linear_1_1250)"/>
</g>
<defs>
<linearGradient id="paint0_linear_1_1250" x1="21.4954" y1="0.646974" x2="40.629" y2="12.3706" gradientUnits="userSpaceOnUse">
<stop stop-color="#4285EB"/>
<stop offset="1" stop-color="#2EC7FF"/>
</linearGradient>
<linearGradient id="paint1_linear_1_1250" x1="24.0665" y1="0.646972" x2="14.6598" y2="49.4258" gradientUnits="userSpaceOnUse">
<stop stop-color="#29CDFF"/>
<stop offset="0.378601" stop-color="#148EFF"/>
<stop offset="1" stop-color="#0A60FF"/>
</linearGradient>
<linearGradient id="paint2_linear_1_1250" x1="42.7662" y1="12.3507" x2="30.5059" y2="31.5889" gradientUnits="userSpaceOnUse">
<stop stop-color="#FA816E"/>
<stop offset="0.414726" stop-color="#F74A5C"/>
<stop offset="1" stop-color="#F51D2C"/>
</linearGradient>
<linearGradient id="paint3_linear_1_1250" x1="25.3443" y1="14.3054" x2="21.2712" y2="30.6528" gradientUnits="userSpaceOnUse">
<stop stop-color="#FA8E7D"/>
<stop offset="0.512635" stop-color="#F74A5C"/>
<stop offset="1" stop-color="#F51D2C"/>
</linearGradient>
<clipPath id="clip0_1_1250">
<rect width="46.1538" height="46" fill="white" transform="translate(0.172974 0.5)"/>
</clipPath>
</defs>
</svg>
